<mxfile host="app.diagrams.net" modified="2023-09-16T07:53:17.826Z" agent="Mozilla/5.0 (Windows NT 10.0; Win64; x64) AppleWebKit/537.36 (KHTML, like Gecko) Chrome/116.0.0.0 Safari/537.36" etag="ADO19JWFCjv_QpqMHeRO" version="21.7.5" type="github" pages="2">
  <diagram name="Контекстная" id="ZWv0XQIptHX5wj8FlSW1">
    <mxGraphModel dx="1434" dy="790" grid="1" gridSize="10" guides="1" tooltips="1" connect="1" arrows="1" fold="1" page="1" pageScale="1" pageWidth="827" pageHeight="1169" math="0" shadow="0">
      <root>
        <mxCell id="0" />
        <mxCell id="1" parent="0" />
        <mxCell id="_nZTojiyE76JTHtSft5U-11" value="&lt;font style=&quot;font-size: 16px;&quot;&gt;(&amp;nbsp; &amp;nbsp; &amp;nbsp;)&lt;/font&gt;" style="text;html=1;align=center;verticalAlign=middle;resizable=0;points=[];autosize=1;strokeColor=none;fillColor=none;" parent="1" vertex="1">
          <mxGeometry x="383" y="170" width="60" height="30" as="geometry" />
        </mxCell>
        <mxCell id="UwtVmJWAxAAU6NyaN8vT-10" value="" style="swimlane;direction=west;" parent="1" vertex="1">
          <mxGeometry x="23" y="20" width="780" height="730" as="geometry">
            <mxRectangle x="24" y="21" width="50" height="40" as="alternateBounds" />
          </mxGeometry>
        </mxCell>
        <mxCell id="UwtVmJWAxAAU6NyaN8vT-11" value="ВЕТКА: А0" style="text;html=1;strokeColor=default;fillColor=none;align=left;verticalAlign=middle;whiteSpace=wrap;rounded=0;glass=0;" parent="UwtVmJWAxAAU6NyaN8vT-10" vertex="1">
          <mxGeometry y="707" width="80" height="23" as="geometry" />
        </mxCell>
        <mxCell id="UwtVmJWAxAAU6NyaN8vT-12" value="НОМЕР: 1" style="text;html=1;strokeColor=default;fillColor=none;align=left;verticalAlign=middle;whiteSpace=wrap;rounded=0;glass=0;" parent="UwtVmJWAxAAU6NyaN8vT-10" vertex="1">
          <mxGeometry x="700" y="707" width="80" height="23" as="geometry" />
        </mxCell>
        <mxCell id="UwtVmJWAxAAU6NyaN8vT-13" value="ЗАГОЛОВОК:&amp;nbsp;" style="text;html=1;strokeColor=none;fillColor=none;align=left;verticalAlign=middle;whiteSpace=wrap;rounded=0;glass=0;" parent="UwtVmJWAxAAU6NyaN8vT-10" vertex="1">
          <mxGeometry x="80" y="707" width="80" height="23" as="geometry" />
        </mxCell>
        <mxCell id="UwtVmJWAxAAU6NyaN8vT-14" value="А-0 Проверка весовых коэффициентов" style="text;html=1;strokeColor=none;fillColor=none;align=center;verticalAlign=middle;whiteSpace=wrap;rounded=0;glass=0;" parent="UwtVmJWAxAAU6NyaN8vT-10" vertex="1">
          <mxGeometry x="80" y="707" width="620" height="23" as="geometry" />
        </mxCell>
        <mxCell id="UwtVmJWAxAAU6NyaN8vT-15" value="&lt;p style=&quot;line-height: 100%;&quot;&gt;Цель: Проверка весовых коэффициентов&lt;/p&gt;&lt;p style=&quot;line-height: 50%;&quot;&gt;Точка зрения: Разработчик ПО&lt;/p&gt;" style="text;html=1;strokeColor=none;fillColor=none;align=left;verticalAlign=middle;whiteSpace=wrap;rounded=0;" parent="UwtVmJWAxAAU6NyaN8vT-10" vertex="1">
          <mxGeometry x="46" y="650" width="174" height="57" as="geometry" />
        </mxCell>
        <mxCell id="UwtVmJWAxAAU6NyaN8vT-34" value="Табличный хи-квадрат" style="endArrow=block;html=1;rounded=0;exitX=1;exitY=0.12;exitDx=0;exitDy=0;exitPerimeter=0;endFill=1;" parent="UwtVmJWAxAAU6NyaN8vT-10" edge="1">
          <mxGeometry width="50" height="50" relative="1" as="geometry">
            <mxPoint x="586" y="180" as="sourcePoint" />
            <mxPoint x="747" y="180" as="targetPoint" />
          </mxGeometry>
        </mxCell>
        <mxCell id="_nZTojiyE76JTHtSft5U-1" value="Матрица из комбинаций&lt;br&gt;рангов" style="endArrow=block;html=1;rounded=0;exitX=1;exitY=0.5;exitDx=0;exitDy=0;endFill=1;labelBackgroundColor=none;" parent="UwtVmJWAxAAU6NyaN8vT-10" edge="1">
          <mxGeometry width="50" height="50" relative="1" as="geometry">
            <mxPoint x="586" y="208" as="sourcePoint" />
            <mxPoint x="747" y="208" as="targetPoint" />
          </mxGeometry>
        </mxCell>
        <mxCell id="_nZTojiyE76JTHtSft5U-2" value="Длительность" style="endArrow=block;html=1;rounded=0;exitX=1;exitY=0.88;exitDx=0;exitDy=0;exitPerimeter=0;endFill=1;" parent="UwtVmJWAxAAU6NyaN8vT-10" edge="1">
          <mxGeometry width="50" height="50" relative="1" as="geometry">
            <mxPoint x="586" y="520" as="sourcePoint" />
            <mxPoint x="747" y="520" as="targetPoint" />
          </mxGeometry>
        </mxCell>
        <mxCell id="_nZTojiyE76JTHtSft5U-13" value="Максимальное&lt;br&gt;количество&lt;br&gt;экспертов" style="endArrow=block;html=1;rounded=0;entryX=0.105;entryY=0;entryDx=0;entryDy=0;endFill=1;entryPerimeter=0;" parent="UwtVmJWAxAAU6NyaN8vT-10" edge="1">
          <mxGeometry x="0.0072" width="50" height="50" relative="1" as="geometry">
            <mxPoint x="297.05" y="59" as="sourcePoint" />
            <mxPoint x="297.00000000000006" y="169" as="targetPoint" />
            <mxPoint x="-1" as="offset" />
          </mxGeometry>
        </mxCell>
        <mxCell id="_nZTojiyE76JTHtSft5U-14" value="Уровень&lt;br&gt;значимости" style="endArrow=block;html=1;rounded=0;entryX=0;entryY=0.25;entryDx=0;entryDy=0;endFill=1;labelBackgroundColor=none;" parent="UwtVmJWAxAAU6NyaN8vT-10" edge="1">
          <mxGeometry x="0.0072" width="50" height="50" relative="1" as="geometry">
            <mxPoint x="37" y="439" as="sourcePoint" />
            <mxPoint x="196" y="439" as="targetPoint" />
            <mxPoint x="-1" as="offset" />
          </mxGeometry>
        </mxCell>
        <mxCell id="UwtVmJWAxAAU6NyaN8vT-33" value="Программное&lt;br&gt;обеспечение" style="endArrow=block;html=1;rounded=0;entryX=0.5;entryY=1;entryDx=0;entryDy=0;endFill=1;" parent="UwtVmJWAxAAU6NyaN8vT-10" edge="1">
          <mxGeometry width="50" height="50" relative="1" as="geometry">
            <mxPoint x="391" y="641" as="sourcePoint" />
            <mxPoint x="391" y="531" as="targetPoint" />
          </mxGeometry>
        </mxCell>
        <mxCell id="_nZTojiyE76JTHtSft5U-6" value="&lt;font style=&quot;font-size: 16px;&quot;&gt;(&amp;nbsp; &amp;nbsp; &amp;nbsp;)&lt;/font&gt;" style="text;html=1;align=center;verticalAlign=middle;resizable=0;points=[];autosize=1;strokeColor=none;fillColor=none;" parent="UwtVmJWAxAAU6NyaN8vT-10" vertex="1">
          <mxGeometry x="360" y="515" width="60" height="30" as="geometry" />
        </mxCell>
        <mxCell id="Q9Z6t221oSEV2i7YVVHM-1" value="Количество&lt;br&gt;комбинаций" style="endArrow=block;html=1;rounded=0;entryX=0.105;entryY=0;entryDx=0;entryDy=0;endFill=1;entryPerimeter=0;" parent="UwtVmJWAxAAU6NyaN8vT-10" edge="1">
          <mxGeometry x="0.0909" width="50" height="50" relative="1" as="geometry">
            <mxPoint x="207" y="59" as="sourcePoint" />
            <mxPoint x="207" y="169" as="targetPoint" />
            <mxPoint as="offset" />
          </mxGeometry>
        </mxCell>
        <mxCell id="SbHf0pWlJhlHCsWusG1j-2" value="Допустимый&lt;br&gt;диапазон&lt;br&gt;согласованности" style="endArrow=block;html=1;rounded=0;entryX=0.105;entryY=0;entryDx=0;entryDy=0;endFill=1;entryPerimeter=0;" parent="UwtVmJWAxAAU6NyaN8vT-10" edge="1">
          <mxGeometry x="0.0078" y="-1" width="50" height="50" relative="1" as="geometry">
            <mxPoint x="566.05" y="59" as="sourcePoint" />
            <mxPoint x="566" y="169" as="targetPoint" />
            <mxPoint as="offset" />
          </mxGeometry>
        </mxCell>
        <mxCell id="Q9Z6t221oSEV2i7YVVHM-2" value="Заданная&lt;br&gt;точность" style="endArrow=block;html=1;rounded=0;entryX=0.105;entryY=0;entryDx=0;entryDy=0;endFill=1;entryPerimeter=0;" parent="UwtVmJWAxAAU6NyaN8vT-10" edge="1">
          <mxGeometry x="0.0078" y="-1" width="50" height="50" relative="1" as="geometry">
            <mxPoint x="477.04999999999995" y="59" as="sourcePoint" />
            <mxPoint x="477" y="169" as="targetPoint" />
            <mxPoint as="offset" />
          </mxGeometry>
        </mxCell>
        <mxCell id="SbHf0pWlJhlHCsWusG1j-5" value="Значение хи-квадрата&lt;br&gt;матриц" style="endArrow=block;html=1;rounded=0;exitX=1;exitY=0.5;exitDx=0;exitDy=0;endFill=1;labelBackgroundColor=none;" parent="UwtVmJWAxAAU6NyaN8vT-10" edge="1">
          <mxGeometry width="50" height="50" relative="1" as="geometry">
            <mxPoint x="586" y="279" as="sourcePoint" />
            <mxPoint x="747" y="280" as="targetPoint" />
          </mxGeometry>
        </mxCell>
        <mxCell id="SbHf0pWlJhlHCsWusG1j-3" value="Прочее" style="endArrow=block;html=1;rounded=0;exitX=1;exitY=0.5;exitDx=0;exitDy=0;endFill=1;labelBackgroundColor=default;" parent="UwtVmJWAxAAU6NyaN8vT-10" edge="1">
          <mxGeometry x="0.0024" width="50" height="50" relative="1" as="geometry">
            <mxPoint x="586" y="490" as="sourcePoint" />
            <mxPoint x="747" y="490" as="targetPoint" />
            <mxPoint as="offset" />
          </mxGeometry>
        </mxCell>
        <mxCell id="N3KC11bhhMYCx0dWHLYu-1" value="Оптимальные&lt;br&gt;весовые коэффициенты" style="endArrow=block;html=1;rounded=0;exitX=1;exitY=0.5;exitDx=0;exitDy=0;endFill=1;labelBackgroundColor=none;" parent="UwtVmJWAxAAU6NyaN8vT-10" edge="1">
          <mxGeometry x="0.0024" width="50" height="50" relative="1" as="geometry">
            <mxPoint x="586" y="460" as="sourcePoint" />
            <mxPoint x="747" y="460" as="targetPoint" />
            <mxPoint as="offset" />
          </mxGeometry>
        </mxCell>
        <mxCell id="UwtVmJWAxAAU6NyaN8vT-23" value="" style="group" parent="1" vertex="1" connectable="0">
          <mxGeometry x="219" y="190" width="390" height="370" as="geometry" />
        </mxCell>
        <mxCell id="UwtVmJWAxAAU6NyaN8vT-24" value="&lt;span style=&quot;font-size: 28px;&quot;&gt;Проверка весовых коэффициентов&lt;br&gt;&lt;/span&gt;" style="rounded=0;whiteSpace=wrap;html=1;" parent="UwtVmJWAxAAU6NyaN8vT-23" vertex="1">
          <mxGeometry width="390" height="360" as="geometry" />
        </mxCell>
        <mxCell id="UwtVmJWAxAAU6NyaN8vT-25" value="A0" style="text;html=1;strokeColor=none;fillColor=none;align=center;verticalAlign=middle;whiteSpace=wrap;rounded=0;" parent="UwtVmJWAxAAU6NyaN8vT-23" vertex="1">
          <mxGeometry x="360" y="329.0969827586206" width="30" height="29.9030172413793" as="geometry" />
        </mxCell>
        <mxCell id="UwtVmJWAxAAU6NyaN8vT-31" value="Весовые коэффициенты" style="endArrow=block;html=1;rounded=0;entryX=0;entryY=0.25;entryDx=0;entryDy=0;endFill=1;" parent="1" target="UwtVmJWAxAAU6NyaN8vT-24" edge="1">
          <mxGeometry x="0.0072" width="50" height="50" relative="1" as="geometry">
            <mxPoint x="60" y="280" as="sourcePoint" />
            <mxPoint x="219.0000000000001" y="252.5" as="targetPoint" />
            <mxPoint x="-1" as="offset" />
          </mxGeometry>
        </mxCell>
        <mxCell id="UwtVmJWAxAAU6NyaN8vT-28" value="Алгоритмы" style="endArrow=block;html=1;rounded=0;entryX=0.5;entryY=0;entryDx=0;entryDy=0;endFill=1;" parent="1" edge="1">
          <mxGeometry width="50" height="50" relative="1" as="geometry">
            <mxPoint x="413" y="80" as="sourcePoint" />
            <mxPoint x="414" y="190" as="targetPoint" />
          </mxGeometry>
        </mxCell>
        <mxCell id="SbHf0pWlJhlHCsWusG1j-4" value="Значение согласованности&lt;br&gt;матриц" style="endArrow=block;html=1;rounded=0;exitX=1;exitY=0.5;exitDx=0;exitDy=0;endFill=1;labelBackgroundColor=none;" parent="1" edge="1">
          <mxGeometry x="0.0023" width="50" height="50" relative="1" as="geometry">
            <mxPoint x="609" y="260" as="sourcePoint" />
            <mxPoint x="770" y="261" as="targetPoint" />
            <mxPoint as="offset" />
          </mxGeometry>
        </mxCell>
        <mxCell id="SbHf0pWlJhlHCsWusG1j-6" value="Значение значимости&lt;br&gt;матриц" style="endArrow=block;html=1;rounded=0;exitX=1;exitY=0.5;exitDx=0;exitDy=0;endFill=1;labelBackgroundColor=none;" parent="1" edge="1">
          <mxGeometry width="50" height="50" relative="1" as="geometry">
            <mxPoint x="609" y="330" as="sourcePoint" />
            <mxPoint x="770" y="331" as="targetPoint" />
          </mxGeometry>
        </mxCell>
        <mxCell id="SbHf0pWlJhlHCsWusG1j-8" value="Весовые коэффициенты&lt;br&gt;матриц" style="endArrow=block;html=1;rounded=0;exitX=1;exitY=0.5;exitDx=0;exitDy=0;endFill=1;labelBackgroundColor=none;" parent="1" edge="1">
          <mxGeometry x="0.0009" width="50" height="50" relative="1" as="geometry">
            <mxPoint x="609" y="360" as="sourcePoint" />
            <mxPoint x="770" y="361" as="targetPoint" />
            <mxPoint as="offset" />
          </mxGeometry>
        </mxCell>
        <mxCell id="SbHf0pWlJhlHCsWusG1j-9" value="Точность расчёта" style="endArrow=block;html=1;rounded=0;exitX=1;exitY=0.5;exitDx=0;exitDy=0;endFill=1;labelBackgroundColor=default;" parent="1" edge="1">
          <mxGeometry x="0.0009" width="50" height="50" relative="1" as="geometry">
            <mxPoint x="609" y="390" as="sourcePoint" />
            <mxPoint x="770" y="391" as="targetPoint" />
            <mxPoint as="offset" />
          </mxGeometry>
        </mxCell>
        <mxCell id="SbHf0pWlJhlHCsWusG1j-10" value="Количество экспертов" style="endArrow=block;html=1;rounded=0;exitX=1;exitY=0.5;exitDx=0;exitDy=0;endFill=1;labelBackgroundColor=default;" parent="1" edge="1">
          <mxGeometry x="0.0009" width="50" height="50" relative="1" as="geometry">
            <mxPoint x="609" y="421" as="sourcePoint" />
            <mxPoint x="770" y="422" as="targetPoint" />
            <mxPoint as="offset" />
          </mxGeometry>
        </mxCell>
        <mxCell id="SbHf0pWlJhlHCsWusG1j-11" value="Ранжирование матриц" style="endArrow=block;html=1;rounded=0;exitX=1;exitY=0.5;exitDx=0;exitDy=0;endFill=1;labelBackgroundColor=default;" parent="1" edge="1">
          <mxGeometry x="0.0009" width="50" height="50" relative="1" as="geometry">
            <mxPoint x="609" y="450" as="sourcePoint" />
            <mxPoint x="770" y="451" as="targetPoint" />
            <mxPoint as="offset" />
          </mxGeometry>
        </mxCell>
      </root>
    </mxGraphModel>
  </diagram>
  <diagram id="uLG6Z2e0YkIsBCWtMbWG" name="А0">
    <mxGraphModel dx="1434" dy="790" grid="1" gridSize="10" guides="1" tooltips="1" connect="1" arrows="1" fold="1" page="1" pageScale="1" pageWidth="1169" pageHeight="827" background="none" math="0" shadow="0">
      <root>
        <mxCell id="0" />
        <mxCell id="1" parent="0" />
        <mxCell id="F-KDv2YsbYm4zEEXJvgU-2" value="" style="endArrow=block;html=1;rounded=0;endFill=1;exitX=1;exitY=0.08;exitDx=0;exitDy=0;exitPerimeter=0;strokeColor=#b85450;labelBackgroundColor=default;fillColor=#f8cecc;fontSize=10;" parent="1" edge="1">
          <mxGeometry x="-0.5" y="-45" width="50" height="50" relative="1" as="geometry">
            <mxPoint x="480" y="375" as="sourcePoint" />
            <mxPoint x="920" y="375" as="targetPoint" />
            <mxPoint as="offset" />
          </mxGeometry>
        </mxCell>
        <mxCell id="SuHji1JUfY4mNwCukmQ_-9" value="Ранжировка матриц" style="endArrow=block;html=1;rounded=0;exitX=1.003;exitY=0.371;exitDx=0;exitDy=0;exitPerimeter=0;fontSize=10;endFill=1;strokeColor=#FF0080;" parent="1" edge="1">
          <mxGeometry width="50" height="50" relative="1" as="geometry">
            <mxPoint x="680" y="536.76" as="sourcePoint" />
            <mxPoint x="920" y="536.76" as="targetPoint" />
          </mxGeometry>
        </mxCell>
        <mxCell id="SuHji1JUfY4mNwCukmQ_-10" value="Оптимальные весовые коэффициенты" style="endArrow=block;html=1;rounded=0;exitX=1.003;exitY=0.371;exitDx=0;exitDy=0;exitPerimeter=0;fontSize=10;endFill=1;strokeColor=#00CC00;" parent="1" edge="1">
          <mxGeometry width="50" height="50" relative="1" as="geometry">
            <mxPoint x="680" y="549.76" as="sourcePoint" />
            <mxPoint x="920" y="549.76" as="targetPoint" />
          </mxGeometry>
        </mxCell>
        <mxCell id="F-KDv2YsbYm4zEEXJvgU-4" value="Весовые коэффициенты&lt;br style=&quot;font-size: 10px;&quot;&gt;матриц" style="endArrow=block;html=1;rounded=0;endFill=1;exitX=1;exitY=0.08;exitDx=0;exitDy=0;exitPerimeter=0;strokeColor=#6600CC;labelBackgroundColor=default;fillColor=#f8cecc;fontSize=10;" parent="1" edge="1">
          <mxGeometry x="-1" y="-71" width="50" height="50" relative="1" as="geometry">
            <mxPoint x="480" y="393" as="sourcePoint" />
            <mxPoint x="920" y="393" as="targetPoint" />
            <mxPoint x="-59" y="-32" as="offset" />
          </mxGeometry>
        </mxCell>
        <mxCell id="VD741ZMysFTanJr_S810-2" value="Значение согласованности&lt;br style=&quot;border-color: var(--border-color); font-size: 10px;&quot;&gt;&lt;span style=&quot;font-size: 10px;&quot;&gt;матриц&lt;/span&gt;" style="endArrow=block;html=1;rounded=0;endFill=1;exitX=1;exitY=0.08;exitDx=0;exitDy=0;exitPerimeter=0;strokeColor=#999900;labelBackgroundColor=none;fontSize=10;" parent="1" edge="1">
          <mxGeometry x="-0.6182" width="50" height="50" relative="1" as="geometry">
            <mxPoint x="480" y="339.79999999999995" as="sourcePoint" />
            <mxPoint x="920" y="340" as="targetPoint" />
            <mxPoint as="offset" />
          </mxGeometry>
        </mxCell>
        <mxCell id="aFnh8GW0OJa8cc7-wk0_-7" value="" style="endArrow=block;html=1;rounded=0;exitX=1.004;exitY=0.16;exitDx=0;exitDy=0;exitPerimeter=0;endFill=1;strokeColor=#00FFFF;fontSize=10;" parent="1" edge="1">
          <mxGeometry x="-1" y="-43" width="50" height="50" relative="1" as="geometry">
            <mxPoint x="280.48" y="196.60000000000014" as="sourcePoint" />
            <mxPoint x="920" y="197" as="targetPoint" />
            <mxPoint as="offset" />
          </mxGeometry>
        </mxCell>
        <mxCell id="aFnh8GW0OJa8cc7-wk0_-8" value="Длительность обработки" style="endArrow=block;html=1;rounded=0;exitX=1.004;exitY=0.16;exitDx=0;exitDy=0;exitPerimeter=0;endFill=1;strokeColor=#9AC7BF;jumpStyle=gap;fontSize=10;" parent="1" edge="1">
          <mxGeometry x="-0.2197" width="50" height="50" relative="1" as="geometry">
            <mxPoint x="280.48" y="214.60000000000014" as="sourcePoint" />
            <mxPoint x="920" y="215" as="targetPoint" />
            <mxPoint as="offset" />
          </mxGeometry>
        </mxCell>
        <mxCell id="aFnh8GW0OJa8cc7-wk0_-9" value="Прочее" style="endArrow=block;html=1;rounded=0;exitX=1.004;exitY=0.16;exitDx=0;exitDy=0;exitPerimeter=0;endFill=1;strokeColor=#FFCE9F;fontSize=10;" parent="1" edge="1">
          <mxGeometry x="-0.8608" width="50" height="50" relative="1" as="geometry">
            <mxPoint x="280.48" y="180.60000000000014" as="sourcePoint" />
            <mxPoint x="920" y="181" as="targetPoint" />
            <mxPoint as="offset" />
          </mxGeometry>
        </mxCell>
        <mxCell id="4u0ujeywtucYIl0Goh5u-2" value="Весовые&lt;br style=&quot;font-size: 10px;&quot;&gt;коэффициенты" style="endArrow=block;html=1;rounded=0;entryX=-0.001;entryY=0.158;entryDx=0;entryDy=0;entryPerimeter=0;endFill=1;labelBackgroundColor=none;strokeColor=#FF00FF;fontSize=10;" parent="1" target="5ahT-SYsGyvmFBpI2IyX-2" edge="1">
          <mxGeometry x="-0.3327" width="50" height="50" relative="1" as="geometry">
            <mxPoint x="40" y="170" as="sourcePoint" />
            <mxPoint x="310" y="190" as="targetPoint" />
            <mxPoint as="offset" />
          </mxGeometry>
        </mxCell>
        <mxCell id="743_yrjDaTubIG02njix-1" value="" style="swimlane;direction=west;fillColor=none;swimlaneFillColor=none;shadow=0;swimlaneLine=1;fontSize=10;" parent="1" vertex="1">
          <mxGeometry x="23" y="20" width="917" height="575" as="geometry">
            <mxRectangle x="23" y="21" width="50" height="40" as="alternateBounds" />
          </mxGeometry>
        </mxCell>
        <mxCell id="swCZicpM5G-BZDFf6zmv-6" value="Неудовлетворительный&lt;br style=&quot;font-size: 10px;&quot;&gt;результат" style="endArrow=classic;html=1;rounded=1;exitX=1;exitY=0.122;exitDx=0;exitDy=0;exitPerimeter=0;entryX=0;entryY=0.75;entryDx=0;entryDy=0;jumpStyle=gap;strokeColor=#333333;fontSize=10;" parent="743_yrjDaTubIG02njix-1" source="swCZicpM5G-BZDFf6zmv-2" target="aFnh8GW0OJa8cc7-wk0_-2" edge="1">
          <mxGeometry x="-0.7566" width="50" height="50" relative="1" as="geometry">
            <mxPoint x="657" y="470" as="sourcePoint" />
            <mxPoint x="597" y="350" as="targetPoint" />
            <Array as="points">
              <mxPoint x="707" y="470" />
              <mxPoint x="707" y="260" />
              <mxPoint x="287" y="260" />
              <mxPoint x="287" y="360" />
            </Array>
            <mxPoint as="offset" />
          </mxGeometry>
        </mxCell>
        <mxCell id="aFnh8GW0OJa8cc7-wk0_-11" value="" style="endArrow=block;html=1;rounded=1;exitX=1.004;exitY=0.61;exitDx=0;exitDy=0;exitPerimeter=0;edgeStyle=orthogonalEdgeStyle;strokeColor=#00FFFF;entryX=0;entryY=0.25;entryDx=0;entryDy=0;endFill=1;jumpStyle=gap;fontSize=10;" parent="743_yrjDaTubIG02njix-1" source="5ahT-SYsGyvmFBpI2IyX-2" target="aFnh8GW0OJa8cc7-wk0_-2" edge="1">
          <mxGeometry width="50" height="50" relative="1" as="geometry">
            <mxPoint x="256.99999999999994" y="176.42" as="sourcePoint" />
            <mxPoint x="296.51" y="220" as="targetPoint" />
          </mxGeometry>
        </mxCell>
        <mxCell id="F-KDv2YsbYm4zEEXJvgU-3" value="Длительность&lt;br style=&quot;font-size: 10px;&quot;&gt;расчёта" style="endArrow=block;html=1;rounded=1;endFill=1;exitX=1;exitY=0.08;exitDx=0;exitDy=0;exitPerimeter=0;strokeColor=#9ac7bf;labelBackgroundColor=none;edgeStyle=elbowEdgeStyle;jumpStyle=none;fontSize=10;" parent="743_yrjDaTubIG02njix-1" edge="1">
          <mxGeometry x="-0.8179" y="14" width="50" height="50" relative="1" as="geometry">
            <mxPoint x="457" y="303.99999999999994" as="sourcePoint" />
            <mxPoint x="897" y="195" as="targetPoint" />
            <mxPoint as="offset" />
            <Array as="points">
              <mxPoint x="774" y="255" />
            </Array>
          </mxGeometry>
        </mxCell>
        <mxCell id="F-KDv2YsbYm4zEEXJvgU-1" value="Хи-квадрат&lt;br style=&quot;font-size: 10px;&quot;&gt;матриц" style="endArrow=block;html=1;rounded=0;endFill=1;exitX=1;exitY=0.08;exitDx=0;exitDy=0;exitPerimeter=0;strokeColor=#FFB570;labelBackgroundColor=none;fontSize=10;" parent="743_yrjDaTubIG02njix-1" edge="1">
          <mxGeometry x="-0.8545" width="50" height="50" relative="1" as="geometry">
            <mxPoint x="457" y="339" as="sourcePoint" />
            <mxPoint x="897" y="339" as="targetPoint" />
            <mxPoint as="offset" />
          </mxGeometry>
        </mxCell>
        <mxCell id="SuHji1JUfY4mNwCukmQ_-2" value="" style="endArrow=block;html=1;rounded=1;endFill=1;strokeColor=#FFB570;labelBackgroundColor=default;entryX=0;entryY=0.25;entryDx=0;entryDy=0;edgeStyle=orthogonalEdgeStyle;jumpStyle=gap;fontSize=10;" parent="743_yrjDaTubIG02njix-1" target="swCZicpM5G-BZDFf6zmv-2" edge="1">
          <mxGeometry x="-0.7674" width="50" height="50" relative="1" as="geometry">
            <mxPoint x="457" y="339" as="sourcePoint" />
            <mxPoint x="907" y="349" as="targetPoint" />
            <mxPoint as="offset" />
            <Array as="points">
              <mxPoint x="510" y="339" />
              <mxPoint x="510" y="480" />
            </Array>
          </mxGeometry>
        </mxCell>
        <mxCell id="cpRvrm9ey4uUoWMbJDzQ-1" value="Уровень&lt;br style=&quot;font-size: 10px;&quot;&gt;значимости" style="endArrow=block;html=1;rounded=0;entryX=-0.001;entryY=0.158;entryDx=0;entryDy=0;entryPerimeter=0;endFill=1;labelBackgroundColor=none;strokeColor=#00FF00;fontSize=10;" parent="743_yrjDaTubIG02njix-1" edge="1">
          <mxGeometry x="-0.3333" width="50" height="50" relative="1" as="geometry">
            <mxPoint x="17" y="190" as="sourcePoint" />
            <mxPoint x="137" y="190" as="targetPoint" />
            <mxPoint as="offset" />
          </mxGeometry>
        </mxCell>
        <mxCell id="swCZicpM5G-BZDFf6zmv-4" value="" style="endArrow=block;html=1;rounded=1;entryX=-0.003;entryY=0.93;entryDx=0;entryDy=0;endFill=1;labelBackgroundColor=none;strokeColor=#FF00FF;edgeStyle=elbowEdgeStyle;jumpStyle=gap;entryPerimeter=0;fontSize=10;" parent="743_yrjDaTubIG02njix-1" target="swCZicpM5G-BZDFf6zmv-2" edge="1">
          <mxGeometry width="50" height="50" relative="1" as="geometry">
            <mxPoint x="17" y="150" as="sourcePoint" />
            <mxPoint x="537" y="499" as="targetPoint" />
            <Array as="points">
              <mxPoint x="107" y="330" />
            </Array>
          </mxGeometry>
        </mxCell>
        <mxCell id="5ahT-SYsGyvmFBpI2IyX-1" value="" style="group;fontSize=10;" parent="743_yrjDaTubIG02njix-1" vertex="1" connectable="0">
          <mxGeometry x="137" y="140" width="120" height="60" as="geometry" />
        </mxCell>
        <mxCell id="5ahT-SYsGyvmFBpI2IyX-2" value="Обработка входных данных" style="rounded=0;whiteSpace=wrap;html=1;fontSize=10;" parent="5ahT-SYsGyvmFBpI2IyX-1" vertex="1">
          <mxGeometry width="120" height="60" as="geometry" />
        </mxCell>
        <mxCell id="5ahT-SYsGyvmFBpI2IyX-3" value="&lt;font style=&quot;font-size: 12px;&quot;&gt;А1&lt;/font&gt;" style="text;html=1;strokeColor=none;fillColor=none;align=center;verticalAlign=middle;whiteSpace=wrap;rounded=0;fontSize=10;" parent="5ahT-SYsGyvmFBpI2IyX-1" vertex="1">
          <mxGeometry x="98" y="44" width="22" height="16" as="geometry" />
        </mxCell>
        <mxCell id="743_yrjDaTubIG02njix-2" value="ВЕТКА: А0" style="text;html=1;strokeColor=default;fillColor=none;align=left;verticalAlign=middle;whiteSpace=wrap;rounded=0;glass=0;fontSize=12;" parent="743_yrjDaTubIG02njix-1" vertex="1">
          <mxGeometry y="552" width="80" height="23" as="geometry" />
        </mxCell>
        <mxCell id="743_yrjDaTubIG02njix-3" value="НОМЕР: 2" style="text;html=1;strokeColor=default;fillColor=none;align=left;verticalAlign=middle;whiteSpace=wrap;rounded=0;glass=0;fontSize=12;" parent="743_yrjDaTubIG02njix-1" vertex="1">
          <mxGeometry x="837" y="552" width="80" height="23" as="geometry" />
        </mxCell>
        <mxCell id="743_yrjDaTubIG02njix-4" value="ЗАГОЛОВОК:&amp;nbsp;" style="text;html=1;strokeColor=none;fillColor=none;align=left;verticalAlign=middle;whiteSpace=wrap;rounded=0;glass=0;fontSize=12;" parent="743_yrjDaTubIG02njix-1" vertex="1">
          <mxGeometry x="80" y="552" width="80" height="23" as="geometry" />
        </mxCell>
        <mxCell id="743_yrjDaTubIG02njix-5" value="А-0 Проверка весовых коэффициентов" style="text;html=1;strokeColor=none;fillColor=none;align=center;verticalAlign=middle;whiteSpace=wrap;rounded=0;glass=0;fontSize=12;" parent="743_yrjDaTubIG02njix-1" vertex="1">
          <mxGeometry x="80" y="552" width="756" height="23" as="geometry" />
        </mxCell>
        <mxCell id="4u0ujeywtucYIl0Goh5u-1" value="Количество&lt;br style=&quot;font-size: 10px;&quot;&gt;комбинаций" style="endArrow=block;html=1;rounded=0;strokeColor=#2200FF;entryX=0.5;entryY=0;entryDx=0;entryDy=0;endFill=1;fontSize=10;" parent="743_yrjDaTubIG02njix-1" target="5ahT-SYsGyvmFBpI2IyX-2" edge="1">
          <mxGeometry width="50" height="50" relative="1" as="geometry">
            <mxPoint x="197" y="30" as="sourcePoint" />
            <mxPoint x="407" y="190" as="targetPoint" />
          </mxGeometry>
        </mxCell>
        <mxCell id="swCZicpM5G-BZDFf6zmv-11" value="Длительность&lt;br style=&quot;font-size: 10px;&quot;&gt;проверки" style="edgeStyle=orthogonalEdgeStyle;rounded=1;orthogonalLoop=1;jettySize=auto;html=1;exitX=1;exitY=0.25;exitDx=0;exitDy=0;endArrow=block;endFill=1;strokeColor=#9ac7bf;jumpStyle=gap;fontSize=10;" parent="743_yrjDaTubIG02njix-1" source="swCZicpM5G-BZDFf6zmv-2" edge="1">
          <mxGeometry x="-0.4438" relative="1" as="geometry">
            <mxPoint x="897" y="195" as="targetPoint" />
            <Array as="points">
              <mxPoint x="774" y="480" />
              <mxPoint x="774" y="195" />
            </Array>
            <mxPoint as="offset" />
          </mxGeometry>
        </mxCell>
        <mxCell id="aFnh8GW0OJa8cc7-wk0_-1" value="" style="group;fontSize=10;" parent="743_yrjDaTubIG02njix-1" vertex="1" connectable="0">
          <mxGeometry x="337" y="300" width="120" height="80" as="geometry" />
        </mxCell>
        <mxCell id="aFnh8GW0OJa8cc7-wk0_-2" value="Расчёт количества экспертов" style="rounded=0;whiteSpace=wrap;html=1;fontSize=10;" parent="aFnh8GW0OJa8cc7-wk0_-1" vertex="1">
          <mxGeometry width="120" height="80" as="geometry" />
        </mxCell>
        <mxCell id="aFnh8GW0OJa8cc7-wk0_-3" value="&lt;font style=&quot;font-size: 12px;&quot;&gt;А2&lt;/font&gt;" style="text;html=1;strokeColor=none;fillColor=none;align=center;verticalAlign=middle;whiteSpace=wrap;rounded=0;fontSize=10;" parent="aFnh8GW0OJa8cc7-wk0_-1" vertex="1">
          <mxGeometry x="98" y="63" width="22" height="17" as="geometry" />
        </mxCell>
        <mxCell id="SuHji1JUfY4mNwCukmQ_-3" value="" style="endArrow=block;html=1;rounded=1;endFill=1;exitX=1.003;exitY=0.687;exitDx=0;exitDy=0;exitPerimeter=0;strokeColor=#b85450;labelBackgroundColor=default;fillColor=#f8cecc;entryX=0;entryY=0.5;entryDx=0;entryDy=0;edgeStyle=orthogonalEdgeStyle;jumpStyle=gap;fontSize=10;" parent="743_yrjDaTubIG02njix-1" source="aFnh8GW0OJa8cc7-wk0_-2" target="swCZicpM5G-BZDFf6zmv-2" edge="1">
          <mxGeometry x="-0.6382" y="7" width="50" height="50" relative="1" as="geometry">
            <mxPoint x="467" y="365" as="sourcePoint" />
            <mxPoint x="907" y="365" as="targetPoint" />
            <mxPoint y="-1" as="offset" />
            <Array as="points">
              <mxPoint x="498" y="355" />
              <mxPoint x="498" y="500" />
            </Array>
          </mxGeometry>
        </mxCell>
        <mxCell id="SuHji1JUfY4mNwCukmQ_-4" value="" style="endArrow=block;html=1;rounded=1;endFill=1;exitX=1.011;exitY=0.651;exitDx=0;exitDy=0;exitPerimeter=0;strokeColor=#6600CC;labelBackgroundColor=default;fillColor=#f8cecc;entryX=0;entryY=0.75;entryDx=0;entryDy=0;edgeStyle=orthogonalEdgeStyle;fontSize=10;" parent="743_yrjDaTubIG02njix-1" source="aFnh8GW0OJa8cc7-wk0_-3" target="swCZicpM5G-BZDFf6zmv-2" edge="1">
          <mxGeometry x="-0.5909" width="50" height="50" relative="1" as="geometry">
            <mxPoint x="467" y="383" as="sourcePoint" />
            <mxPoint x="907" y="383" as="targetPoint" />
            <mxPoint as="offset" />
            <Array as="points">
              <mxPoint x="479" y="373" />
              <mxPoint x="479" y="520" />
            </Array>
          </mxGeometry>
        </mxCell>
        <mxCell id="SuHji1JUfY4mNwCukmQ_-1" value="" style="endArrow=classic;html=1;rounded=1;exitX=1.003;exitY=0.248;exitDx=0;exitDy=0;entryX=-0.003;entryY=0.054;entryDx=0;entryDy=0;entryPerimeter=0;edgeStyle=orthogonalEdgeStyle;exitPerimeter=0;strokeColor=#999900;jumpStyle=gap;fontSize=10;" parent="743_yrjDaTubIG02njix-1" source="aFnh8GW0OJa8cc7-wk0_-2" target="swCZicpM5G-BZDFf6zmv-2" edge="1">
          <mxGeometry width="50" height="50" relative="1" as="geometry">
            <mxPoint x="564" y="424" as="sourcePoint" />
            <mxPoint x="614" y="374" as="targetPoint" />
            <Array as="points">
              <mxPoint x="523" y="320" />
              <mxPoint x="523" y="464" />
            </Array>
          </mxGeometry>
        </mxCell>
        <mxCell id="SuHji1JUfY4mNwCukmQ_-8" value="Количество экспертов" style="endArrow=block;html=1;rounded=0;exitX=1.003;exitY=0.371;exitDx=0;exitDy=0;exitPerimeter=0;fontSize=10;endFill=1;strokeColor=#CC99FF;" parent="743_yrjDaTubIG02njix-1" edge="1">
          <mxGeometry width="50" height="50" relative="1" as="geometry">
            <mxPoint x="657" y="503.76" as="sourcePoint" />
            <mxPoint x="897" y="503.76" as="targetPoint" />
          </mxGeometry>
        </mxCell>
        <mxCell id="aFnh8GW0OJa8cc7-wk0_-12" value="" style="endArrow=block;html=1;rounded=1;exitX=1.004;exitY=0.077;exitDx=0;exitDy=0;exitPerimeter=0;edgeStyle=orthogonalEdgeStyle;strokeColor=#660033;jumpStyle=gap;entryX=0.5;entryY=0;entryDx=0;entryDy=0;endFill=1;fontSize=10;" parent="743_yrjDaTubIG02njix-1" source="5ahT-SYsGyvmFBpI2IyX-2" target="aFnh8GW0OJa8cc7-wk0_-2" edge="1">
          <mxGeometry width="50" height="50" relative="1" as="geometry">
            <mxPoint x="257" y="144.62000000000006" as="sourcePoint" />
            <mxPoint x="398" y="300" as="targetPoint" />
            <Array as="points">
              <mxPoint x="397" y="145" />
            </Array>
          </mxGeometry>
        </mxCell>
        <mxCell id="SuHji1JUfY4mNwCukmQ_-13" value="" style="rounded=0;whiteSpace=wrap;html=1;fillColor=default;strokeColor=none;" parent="743_yrjDaTubIG02njix-1" vertex="1">
          <mxGeometry x="294" y="247" width="6" height="6" as="geometry" />
        </mxCell>
        <mxCell id="SuHji1JUfY4mNwCukmQ_-14" value="" style="endArrow=none;html=1;rounded=0;entryX=1;entryY=0.5;entryDx=0;entryDy=0;strokeColor=#00ff00;exitX=0;exitY=0.5;exitDx=0;exitDy=0;" parent="743_yrjDaTubIG02njix-1" source="SuHji1JUfY4mNwCukmQ_-13" target="SuHji1JUfY4mNwCukmQ_-13" edge="1">
          <mxGeometry width="50" height="50" relative="1" as="geometry">
            <mxPoint x="294" y="250" as="sourcePoint" />
            <mxPoint x="299" y="250" as="targetPoint" />
          </mxGeometry>
        </mxCell>
        <mxCell id="swCZicpM5G-BZDFf6zmv-1" value="" style="group;fontSize=10;" parent="743_yrjDaTubIG02njix-1" vertex="1" connectable="0">
          <mxGeometry x="537" y="460" width="120" height="80" as="geometry" />
        </mxCell>
        <mxCell id="swCZicpM5G-BZDFf6zmv-2" value="Проверка допустимости решения" style="rounded=0;whiteSpace=wrap;html=1;fontSize=10;" parent="swCZicpM5G-BZDFf6zmv-1" vertex="1">
          <mxGeometry width="120" height="80" as="geometry" />
        </mxCell>
        <mxCell id="swCZicpM5G-BZDFf6zmv-3" value="&lt;font style=&quot;font-size: 12px;&quot;&gt;А3&lt;/font&gt;" style="text;html=1;strokeColor=none;fillColor=none;align=center;verticalAlign=middle;whiteSpace=wrap;rounded=0;fontSize=10;" parent="swCZicpM5G-BZDFf6zmv-1" vertex="1">
          <mxGeometry x="98" y="63" width="22" height="17" as="geometry" />
        </mxCell>
        <mxCell id="swCZicpM5G-BZDFf6zmv-9" value="Длительность" style="text;html=1;align=center;verticalAlign=middle;resizable=0;points=[];autosize=1;strokeColor=none;fillColor=none;fontSize=10;labelBackgroundColor=default;" parent="743_yrjDaTubIG02njix-1" vertex="1">
          <mxGeometry x="786" y="179" width="90" height="30" as="geometry" />
        </mxCell>
        <mxCell id="myjEKPWiFId4UAK0u5nU-1" value="Заданная&lt;br&gt;точность" style="endArrow=block;html=1;rounded=0;entryX=0.582;entryY=-0.001;entryDx=0;entryDy=0;strokeColor=#C40606;jumpStyle=gap;endFill=1;fontSize=10;entryPerimeter=0;" parent="743_yrjDaTubIG02njix-1" target="swCZicpM5G-BZDFf6zmv-2" edge="1">
          <mxGeometry x="-0.7037" width="50" height="50" relative="1" as="geometry">
            <mxPoint x="607" y="30" as="sourcePoint" />
            <mxPoint x="610" y="300" as="targetPoint" />
            <mxPoint as="offset" />
          </mxGeometry>
        </mxCell>
        <mxCell id="aFnh8GW0OJa8cc7-wk0_-6" value="Табличный хи-квадрат" style="endArrow=block;html=1;rounded=0;exitX=1.004;exitY=0.16;exitDx=0;exitDy=0;exitPerimeter=0;endFill=1;strokeColor=#660033;fontSize=10;" parent="1" edge="1">
          <mxGeometry x="-0.7826" width="50" height="50" relative="1" as="geometry">
            <mxPoint x="280.48" y="164.60000000000014" as="sourcePoint" />
            <mxPoint x="920" y="165" as="targetPoint" />
            <mxPoint as="offset" />
          </mxGeometry>
        </mxCell>
        <mxCell id="aFnh8GW0OJa8cc7-wk0_-5" value="" style="endArrow=block;html=1;rounded=1;entryX=0.25;entryY=0;entryDx=0;entryDy=0;edgeStyle=orthogonalEdgeStyle;strokeColor=#00FF00;jumpStyle=gap;endFill=1;fontSize=10;" parent="1" target="aFnh8GW0OJa8cc7-wk0_-2" edge="1">
          <mxGeometry width="50" height="50" relative="1" as="geometry">
            <mxPoint x="40" y="210" as="sourcePoint" />
            <mxPoint x="370" y="230" as="targetPoint" />
            <Array as="points">
              <mxPoint x="140" y="210" />
              <mxPoint x="140" y="270" />
              <mxPoint x="390" y="270" />
            </Array>
          </mxGeometry>
        </mxCell>
        <mxCell id="aFnh8GW0OJa8cc7-wk0_-13" value="Матрица из&lt;br style=&quot;font-size: 10px;&quot;&gt;комбинаций рангов" style="edgeStyle=isometricEdgeStyle;endArrow=none;html=1;elbow=vertical;rounded=0;strokeColor=#00FFFF;fontSize=10;" parent="1" edge="1">
          <mxGeometry x="-0.641" y="-10" width="50" height="100" relative="1" as="geometry">
            <mxPoint x="280" y="240" as="sourcePoint" />
            <mxPoint x="301" y="196.5" as="targetPoint" />
            <mxPoint x="-11" y="-1" as="offset" />
          </mxGeometry>
        </mxCell>
        <mxCell id="SuHji1JUfY4mNwCukmQ_-6" value="Значение&lt;br style=&quot;border-color: var(--border-color);&quot;&gt;значимости&lt;br style=&quot;border-color: var(--border-color);&quot;&gt;матриц" style="edgeStyle=isometricEdgeStyle;endArrow=none;html=1;rounded=0;elbow=vertical;strokeColor=#b85450;fontSize=10;" parent="1" edge="1">
          <mxGeometry x="-0.9464" y="9" width="50" height="100" relative="1" as="geometry">
            <mxPoint x="597" y="414" as="sourcePoint" />
            <mxPoint x="498" y="375" as="targetPoint" />
            <mxPoint as="offset" />
          </mxGeometry>
        </mxCell>
        <mxCell id="swCZicpM5G-BZDFf6zmv-12" value="" style="endArrow=none;html=1;rounded=0;strokeColor=#9ac7bf;fontSize=10;" parent="1" edge="1">
          <mxGeometry width="50" height="50" relative="1" as="geometry">
            <mxPoint x="797" y="329" as="sourcePoint" />
            <mxPoint x="797" y="305" as="targetPoint" />
          </mxGeometry>
        </mxCell>
        <mxCell id="SuHji1JUfY4mNwCukmQ_-5" value="" style="edgeStyle=isometricEdgeStyle;endArrow=none;html=1;elbow=vertical;rounded=0;strokeColor=#6600cc;fontSize=10;" parent="1" edge="1">
          <mxGeometry width="50" height="100" relative="1" as="geometry">
            <mxPoint x="453" y="421" as="sourcePoint" />
            <mxPoint x="490" y="393" as="targetPoint" />
          </mxGeometry>
        </mxCell>
        <mxCell id="SuHji1JUfY4mNwCukmQ_-7" value="Точность расчёта" style="endArrow=block;html=1;rounded=0;exitX=1.003;exitY=0.371;exitDx=0;exitDy=0;exitPerimeter=0;fontSize=10;endFill=1;strokeColor=#007FFF;" parent="1" source="swCZicpM5G-BZDFf6zmv-2" edge="1">
          <mxGeometry width="50" height="50" relative="1" as="geometry">
            <mxPoint x="646" y="530" as="sourcePoint" />
            <mxPoint x="920" y="510" as="targetPoint" />
          </mxGeometry>
        </mxCell>
        <mxCell id="aFnh8GW0OJa8cc7-wk0_-15" value="Максимальное&lt;br style=&quot;font-size: 10px;&quot;&gt;количество&lt;br style=&quot;font-size: 10px;&quot;&gt;экспертов" style="endArrow=block;html=1;rounded=0;entryX=0.75;entryY=0;entryDx=0;entryDy=0;strokeColor=#99004D;jumpStyle=gap;endFill=1;fontSize=10;" parent="1" target="aFnh8GW0OJa8cc7-wk0_-2" edge="1">
          <mxGeometry x="-0.7037" width="50" height="50" relative="1" as="geometry">
            <mxPoint x="450" y="50" as="sourcePoint" />
            <mxPoint x="444" y="186" as="targetPoint" />
            <mxPoint as="offset" />
          </mxGeometry>
        </mxCell>
        <mxCell id="SuHji1JUfY4mNwCukmQ_-15" value="" style="rounded=0;whiteSpace=wrap;html=1;fillColor=default;strokeColor=none;" parent="1" vertex="1">
          <mxGeometry x="727" y="321" width="6" height="6" as="geometry" />
        </mxCell>
        <mxCell id="SuHji1JUfY4mNwCukmQ_-16" value="" style="endArrow=none;html=1;rounded=0;entryX=1;entryY=0.5;entryDx=0;entryDy=0;strokeColor=#9ac7bf;exitX=0;exitY=0.5;exitDx=0;exitDy=0;" parent="1" source="SuHji1JUfY4mNwCukmQ_-15" target="SuHji1JUfY4mNwCukmQ_-15" edge="1">
          <mxGeometry width="50" height="50" relative="1" as="geometry">
            <mxPoint x="727" y="324" as="sourcePoint" />
            <mxPoint x="732" y="324" as="targetPoint" />
          </mxGeometry>
        </mxCell>
        <mxCell id="TsbKuPcypvL2_fGO2CIv-1" value="" style="rounded=0;whiteSpace=wrap;html=1;fillColor=default;strokeColor=none;" parent="1" vertex="1">
          <mxGeometry x="627" y="161.82" width="6" height="6" as="geometry" />
        </mxCell>
        <mxCell id="TsbKuPcypvL2_fGO2CIv-2" value="" style="endArrow=none;html=1;rounded=0;entryX=1;entryY=0.5;entryDx=0;entryDy=0;strokeColor=#660033;exitX=0;exitY=0.5;exitDx=0;exitDy=0;" parent="1" source="TsbKuPcypvL2_fGO2CIv-1" target="TsbKuPcypvL2_fGO2CIv-1" edge="1">
          <mxGeometry width="50" height="50" relative="1" as="geometry">
            <mxPoint x="627" y="165" as="sourcePoint" />
            <mxPoint x="632" y="165" as="targetPoint" />
          </mxGeometry>
        </mxCell>
        <mxCell id="TsbKuPcypvL2_fGO2CIv-3" value="" style="endArrow=block;html=1;rounded=0;entryX=0.582;entryY=-0.001;entryDx=0;entryDy=0;strokeColor=#96cc5c;jumpStyle=gap;endFill=1;fontSize=10;entryPerimeter=0;" parent="1" edge="1">
          <mxGeometry x="-0.8605" y="60" width="50" height="50" relative="1" as="geometry">
            <mxPoint x="670" y="50" as="sourcePoint" />
            <mxPoint x="670" y="480" as="targetPoint" />
            <mxPoint as="offset" />
          </mxGeometry>
        </mxCell>
        <mxCell id="icGptEm0jieCShI3OMM5-2" value="Допустимый&lt;br style=&quot;border-color: var(--border-color); font-size: 10px;&quot;&gt;&lt;span style=&quot;font-size: 10px;&quot;&gt;диапазон&lt;/span&gt;&lt;br style=&quot;border-color: var(--border-color); font-size: 10px;&quot;&gt;&lt;span style=&quot;font-size: 10px;&quot;&gt;согласованности&lt;/span&gt;" style="edgeStyle=isometricEdgeStyle;endArrow=none;html=1;rounded=0;strokeColor=#96cc5c;fontSize=10;" parent="1" edge="1">
          <mxGeometry x="1" y="10" width="50" height="100" relative="1" as="geometry">
            <mxPoint x="670" y="130" as="sourcePoint" />
            <mxPoint x="720" y="90" as="targetPoint" />
            <mxPoint x="5" y="-1" as="offset" />
          </mxGeometry>
        </mxCell>
      </root>
    </mxGraphModel>
  </diagram>
</mxfile>
